<svg id="Solid" height="512" viewBox="0 0 512 512" width="512" xmlns="http://www.w3.org/2000/svg"><path d="m342.5 280h22.52l-7.04-16h-22.52z"/><path d="m328.42 248h22.52l-7.04-16h-22.52z"/><path d="m200 85.49a55.634 55.634 0 0 0 16.4 39.6l26.51 26.51a55.773 55.773 0 0 0 21.09 13.274v-20.874a24.027 24.027 0 0 1 24-24h24a23.888 23.888 0 0 1 15.225 5.462l93.462-93.462h-201.374l-19.513 19.519a24.274 24.274 0 0 1 .2 3.108z"/><path d="m300.26 184 14.08 32h22.52l-14.08-32z"/><path d="m312 136h-24a8.009 8.009 0 0 0 -8 8v23.939c.834.037 1.67.061 2.51.061h37.49v-24a8.009 8.009 0 0 0 -8-8z"/><path d="m310.226 417.539-254.226-254.226-4.878 4.879a56.034 56.034 0 0 0 -9.389 66.755l16.607-16.607a8 8 0 0 1 11.32 11.32l-18.133 18.133 36.68 36.68 18.133-18.133a8 8 0 0 1 11.32 11.32l-18.133 18.133 29.653 29.654a7.949 7.949 0 0 0 5.657 2.343h25.163a24.027 24.027 0 0 1 24 24v25.583a7.949 7.949 0 0 0 2.343 5.657l13.657 13.653 18.34-18.343a8 8 0 0 1 11.32 11.32l-18.343 18.34 36.683 36.683 18.34-18.343a8 8 0 0 1 11.32 11.32l-18.06 18.059a103.209 103.209 0 0 0 66.792 24.281h25.608v-8a8 8 0 0 1 16 0v8h48v-8a8 8 0 0 1 16 0v8h24a24.027 24.027 0 0 0 24-24v-8h-96.235a103.318 103.318 0 0 1 -73.539-30.461z"/><path d="m112 152a55.589 55.589 0 0 0 -11.144-33.543l-33.543 33.543 33.543 33.543a55.589 55.589 0 0 0 11.144-33.543z"/><path d="m217.54 190.23a87.419 87.419 0 0 0 62.22 25.77h17.1l-14.08-32h-.27a71.529 71.529 0 0 1 -50.91-21.088l-26.51-26.51a71.529 71.529 0 0 1 -21.09-50.912v-30.863a8 8 0 0 0 -13.657-5.657l-18.343 18.343v20.927a87.419 87.419 0 0 0 25.77 62.22z"/><path d="m374.913 353.666a24.008 24.008 0 0 0 21.968 14.334h6.859l-17.6-40h-22.52z"/><path d="m440 384h-43.119a40.012 40.012 0 0 1 -36.613-23.89l-14.128-32.11h-26.14a8 8 0 0 1 0-16h19.1l-7.04-16h-28.06a8 8 0 0 1 0-16h21.02l-7.04-16h-29.98a8 8 0 0 1 0-16h22.94l-7.04-16h-24.14a103.321 103.321 0 0 1 -73.53-30.46l-39.77-39.77a103.321 103.321 0 0 1 -30.46-73.53v-4.927l-23.747 23.747a72 72 0 0 1 0 89.88l209.286 209.286a87.428 87.428 0 0 0 62.226 25.774h96.235v-8a40.045 40.045 0 0 0 -40-40z"/><path d="m356.58 312h22.52l-7.04-16h-22.52z"/><path d="m96 352h-72a8 8 0 0 1 0-16h72a8 8 0 0 1 0 16z"/><path d="m192 448h-168a8 8 0 0 1 0-16h168a8 8 0 0 1 0 16z"/><path d="m144 400h-120a8 8 0 0 1 0-16h120a8 8 0 0 1 0 16z"/></svg>