<svg width="24" height="24" xmlns="http://www.w3.org/2000/svg" fill-rule="evenodd" clip-rule="evenodd"><path d="M21.83 9h-2.09c.17-.49.26-.96.26-1.41 0-2.33-1.82-3.78-4.02-3.57-2.68.24-4.52 3.7-4.98 4.48-.53-.86-2.26-4.24-4.98-4.5C3.9 3.8 2 5.2 2 7.6c0 3.1 4.35 7.08 9 11.61 1.16-1.12 2.29-2.2 3.33-3.24l.97 1.86c-1.32 1.3-2.77 2.68-4.3 4.18C4.84 15.96 0 11.8 0 7.6 0 4.3 2.46 2.07 5.67 2 7.84 2 9.8 2.96 11 4.95a6 6 0 015.25-2.94c3.07 0 5.75 2.12 5.75 5.6 0 .46-.06.92-.17 1.39zm-11.1 4a2 2 0 110-2h1.22l1.88-2.71a.7.7 0 011.2.08l2.27 4.44.81-1.45a.7.7 0 01.62-.36H24v2h-4.51l-1.76 2.9a.7.7 0 01-1.23-.04l-2.25-4.56-1 1.4a.7.7 0 01-.57.3h-1.95z"/></svg>