<svg width="24" height="24" xmlns="http://www.w3.org/2000/svg" fill-rule="evenodd" clip-rule="evenodd"><path d="M15.52 24H3.87c.52-3.04.9-6.16-.42-8.03A12.23 12.23 0 011 9.1C.95 3.89 5.23-.03 11.2 0c7.24.03 9.33 6.16 9.78 7.94.34 1.37-.9 1.87-.17 2.7.6.68 1.03 1.37 1.79 2.18.3.32.4.65.4.94 0 .44-.3.8-.75.96-.43.15-.76.32-1.21.45a26.52 26.52 0 01-.8 3.55c-.74 2.62-2.9 1.06-3.88 2.61-.43.67-.64 1.74-.84 2.67zm-4.3-8.32c.12 0 .23-.04.31-.1l.6-.4H9.87l.6.4c.08.06.19.1.3.1h.45zm.93-1c.13 0 .25-.1.25-.25s-.12-.25-.25-.25H9.87a.25.25 0 000 .5h2.28zm.24-1c0-2 1.61-2.83 1.61-4.61 0-1.86-1.5-2.89-3-2.89S8 7.21 8 9.07c0 1.78 1.6 2.64 1.6 4.61h2.8zm2.48-3.61l1.35.61-.41.91-1.3-.59c.15-.3.27-.6.36-.93zm-7.74 0c.09.33.2.63.36.93l-1.3.6-.4-.92 1.34-.61zm9.37-.89v-1h-1.6c.08.33.1.67.1 1h1.5zm-9.5 0c0-.33.02-.67.1-1H5.5v1H7zm7.02-2.71l1.24-.88.58.81-1.25.9c-.15-.3-.34-.57-.57-.83zm-6.04 0c-.23.25-.42.52-.57.82L6.16 6.4l.58-.81 1.24.88zm4.43-1.05l.67-1.34.9.44-.67 1.35a4.06 4.06 0 00-.9-.45zm-2.82 0c-.32.11-.62.26-.9.44l-.66-1.34.9-.44.66 1.34zm1.91-.2a4.23 4.23 0 00-1 0V3.67h1v1.53z"/></svg>