<svg aria-hidden="true" data-prefix="fas" data-icon="shoe-prints" class="svg-inline--fa fa-shoe-prints fa-w-20" xmlns="http://www.w3.org/2000/svg" viewBox="0 0 640 512"><path fill="currentColor" d="M192 160h32V32h-32a64 64 0 100 128zM0 416c0 35 29 64 64 64h32V352H64c-35 0-64 29-64 64zm337-128c-34 0-76 13-104 32-25 16-45 32-105 32v128l58 16a348 348 0 00178 9c109-24 148-76 148-121 0-64-84-96-175-96zM491 7a347 347 0 00-177 9l-58 16v128c60 0 80 16 105 32 28 19 70 32 104 32 91 0 175-32 175-96 0-45-39-97-149-121z"/></svg>