<svg aria-hidden="true" data-prefix="fas" data-icon="running" class="svg-inline--fa fa-running fa-w-13" xmlns="http://www.w3.org/2000/svg" viewBox="0 0 416 512"><path fill="currentColor" d="M272 96a48 48 0 100-96 48 48 0 000 96zM113.7 317.5L98.9 352H32a32 32 0 000 64h77.5a47.9 47.9 0 0044-29.1l8.9-20.5-10.7-6.3a95.2 95.2 0 01-38-42.6zM384 224h-44l-26-53.3a96 96 0 00-61.9-50.9l-71-21.1a95.6 95.6 0 00-80.9 17.1l-39.7 30.4a32 32 0 1039 50.8l39.7-30.4c7.6-6 17.4-8 25.2-6.2l14.7 4.4-37.4 87.4a64.2 64.2 0 0026.3 80.3l85 50.2-27.5 87.7a32 32 0 1061 19.1l31.7-101c6-20.8-2.9-43.1-21.6-54.4l-61.3-36.2 31.3-78.2L287 261c8 16.3 25 26.9 43.1 26.9h54a32 32 0 000-64z"/></svg>