<svg aria-hidden="true" data-prefix="fas" data-icon="comments" class="svg-inline--fa fa-comments fa-w-18" xmlns="http://www.w3.org/2000/svg" viewBox="0 0 576 512"><path fill="currentColor" d="M416 192c0-88-93-160-208-160S0 104 0 192c0 34 14 66 38 92-13 30-35 54-36 55-2 2-3 5-1 8s4 5 7 5c37 0 67-12 89-25 32 16 70 25 111 25 115 0 208-72 208-160zm122 220c24-26 38-58 38-92 0-67-53-124-129-148l1 20c0 106-108 192-240 192l-32-2c32 58 106 98 192 98 41 0 79-9 111-25 22 13 52 25 89 25 3 0 6-2 7-5 2-3 1-6-1-9-1 0-23-24-36-54z"/></svg>